# xmcd CD database file
#
# Track frame offsets:
#	180
#	15461
#	46013
#	62664
#	82120
#	98429
#	113620
#	123423
#	153000
#	171037
#	187851
#	204813
#
# Disc length: 2910 seconds
#
# Revision: 0
# Processed by: cddbd v1.5PL3 Copyright (c) Steve Scherf et al.
# Submitted via: cdripper 1.0.7
#
DISCID=7d0b5c0c
DTITLE=Chizmo Charles - Up All Night
DYEAR=1998
DGENRE=Jazz
TTITLE0=Bed Bug Boogie
TTITLE1=Hurricane
TTITLE2=Up All Night
TTITLE3=Good Times
TTITLE4=Shake Your Moneymaker
TTITLE5=I Got to Have It
TTITLE6=Late at Night
TTITLE7=Angel Eyes
TTITLE8=Tired of Waiting
TTITLE9=The Walkin' Blues
TTITLE10=Bad Bad Whiskey
TTITLE11=All She Wants to Do Is Rock
EXTD=YEAR: 1998
EXTT0=
EXTT1=
EXTT2=
EXTT3=
EXTT4=
EXTT5=
EXTT6=
EXTT7=
EXTT8=
EXTT9=
EXTT10=
EXTT11=
PLAYORDER=
